<?xml version="1.0" standalone="no"?>
<!DOCTYPE svg PUBLIC "-//W3C//DTD SVG 20010904//EN"
 "http://www.w3.org/TR/2001/REC-SVG-20010904/DTD/svg10.dtd">
<svg version="1.0" xmlns="http://www.w3.org/2000/svg"
 width="1905.000000pt" height="1905.000000pt" viewBox="0 0 1905.000000 1905.000000"
 preserveAspectRatio="xMidYMid meet">
<metadata>
Created by potrace 1.11, written by Peter Selinger 2001-2013
</metadata>
<g transform="translate(0.000000,1905.000000) scale(0.100000,-0.100000)"
fill="#000000" stroke="none">
<path d="M8850 13710 c-269 -15 -487 -101 -760 -300 -52 -38 -133 -91 -180
-118 -131 -75 -266 -159 -370 -230 -52 -36 -135 -92 -185 -125 -49 -33 -141
-108 -204 -166 -135 -125 -415 -427 -524 -563 -42 -53 -145 -170 -229 -260
-160 -171 -289 -320 -323 -374 -11 -17 -35 -53 -53 -80 -34 -51 -70 -138 -79
-189 -4 -26 -18 -38 -90 -79 -46 -27 -115 -64 -152 -82 -37 -18 -92 -52 -122
-76 -30 -24 -72 -57 -94 -73 -70 -52 -218 -186 -252 -228 -18 -23 -63 -82
-100 -131 -55 -73 -68 -85 -76 -71 -9 17 -101 65 -124 65 -7 0 -38 12 -70 27
-100 45 -146 53 -329 53 -201 0 -240 -10 -357 -88 -154 -104 -266 -249 -313
-404 -24 -79 -25 -92 -21 -273 4 -209 15 -260 83 -397 126 -258 283 -357 545
-346 l80 3 -5 -25 c-38 -168 -40 -190 -39 -370 1 -188 15 -395 34 -527 l10
-72 -54 -90 c-44 -72 -127 -253 -127 -276 0 -3 6 -5 14 -5 10 0 8 -15 -12 -62
-17 -43 -27 -88 -30 -144 -4 -72 -2 -84 16 -102 11 -11 26 -22 33 -24 11 -4 9
-11 -7 -29 -63 -70 -154 -359 -154 -487 0 -189 63 -322 153 -322 21 0 25 -7
36 -67 50 -274 179 -529 323 -641 122 -95 376 -233 516 -281 35 -12 90 -35
122 -51 93 -47 251 -87 400 -100 142 -14 351 -9 410 10 44 13 128 27 255 40
203 23 326 65 498 171 l78 49 57 -16 c31 -8 140 -26 242 -40 177 -25 199 -26
500 -20 173 3 353 10 400 16 47 5 148 14 224 20 77 6 192 17 255 25 264 32
407 37 701 26 210 -8 310 -16 380 -30 137 -28 516 -99 648 -121 176 -30 396
-43 621 -37 215 5 261 13 320 53 23 16 50 24 77 24 65 0 144 30 191 73 21 18
24 19 40 5 10 -9 53 -35 95 -57 66 -36 96 -45 195 -61 65 -10 132 -23 148 -30
106 -42 233 -53 774 -69 297 -9 369 -8 451 4 245 37 694 53 980 35 250 -16
660 -16 755 0 40 6 73 17 78 26 15 27 33 18 100 -53 33 -35 47 -43 77 -43 20
0 41 5 48 12 20 20 14 83 -13 129 -14 24 -25 51 -25 58 0 8 11 -8 25 -36 49
-97 148 -167 282 -197 160 -36 217 -10 204 92 -1 8 13 12 42 12 86 0 381 70
422 100 6 4 37 17 70 29 95 35 254 119 320 168 l60 45 105 -6 c117 -7 232 4
360 35 129 32 321 139 395 221 36 39 37 43 33 101 -6 76 -13 83 -244 227 -142
88 -185 121 -269 205 -105 105 -103 103 -204 327 l-30 67 57 -38 c99 -67 148
-85 243 -89 84 -4 87 -3 120 26 29 26 34 37 34 75 0 31 -6 52 -20 67 -23 26
-102 80 -116 80 -6 0 -49 39 -97 88 -115 115 -213 273 -379 607 -147 298 -259
582 -302 766 -26 112 -79 294 -172 603 -17 54 -64 177 -104 272 -41 96 -89
220 -106 276 -35 114 -147 416 -204 548 -120 281 -314 582 -630 980 -147 185
-477 538 -590 630 -37 30 -115 94 -172 143 -149 125 -200 157 -432 272 -298
148 -321 158 -638 244 -430 117 -656 165 -953 201 -91 11 -190 25 -220 30
-114 21 -397 23 -660 6 -324 -22 -472 -39 -690 -80 l-175 -33 -145 147 c-80
80 -172 168 -205 195 -33 27 -80 68 -105 91 -39 36 -143 116 -309 234 -74 53
-290 151 -401 182 -240 66 -418 84 -690 68z"/>
</g>
</svg>
